%TF.GenerationSoftware,KiCad,Pcbnew,9.0.1*%
%TF.CreationDate,2025-04-12T12:51:45-05:00*%
%TF.ProjectId,Through Hole LED,5468726f-7567-4682-9048-6f6c65204c45,rev?*%
%TF.SameCoordinates,Original*%
%TF.FileFunction,Copper,L1,Top*%
%TF.FilePolarity,Positive*%
%FSLAX46Y46*%
G04 Gerber Fmt 4.6, Leading zero omitted, Abs format (unit mm)*
G04 Created by KiCad (PCBNEW 9.0.1) date 2025-04-12 12:51:45*
%MOMM*%
%LPD*%
G01*
G04 APERTURE LIST*
G04 Aperture macros list*
%AMRoundRect*
0 Rectangle with rounded corners*
0 $1 Rounding radius*
0 $2 $3 $4 $5 $6 $7 $8 $9 X,Y pos of 4 corners*
0 Add a 4 corners polygon primitive as box body*
4,1,4,$2,$3,$4,$5,$6,$7,$8,$9,$2,$3,0*
0 Add four circle primitives for the rounded corners*
1,1,$1+$1,$2,$3*
1,1,$1+$1,$4,$5*
1,1,$1+$1,$6,$7*
1,1,$1+$1,$8,$9*
0 Add four rect primitives between the rounded corners*
20,1,$1+$1,$2,$3,$4,$5,0*
20,1,$1+$1,$4,$5,$6,$7,0*
20,1,$1+$1,$6,$7,$8,$9,0*
20,1,$1+$1,$8,$9,$2,$3,0*%
%AMFreePoly0*
4,1,23,0.500000,-0.750000,0.000000,-0.750000,0.000000,-0.745722,-0.065263,-0.745722,-0.191342,-0.711940,-0.304381,-0.646677,-0.396677,-0.554381,-0.461940,-0.441342,-0.495722,-0.315263,-0.495722,-0.250000,-0.500000,-0.250000,-0.500000,0.250000,-0.495722,0.250000,-0.495722,0.315263,-0.461940,0.441342,-0.396677,0.554381,-0.304381,0.646677,-0.191342,0.711940,-0.065263,0.745722,0.000000,0.745722,
0.000000,0.750000,0.500000,0.750000,0.500000,-0.750000,0.500000,-0.750000,$1*%
%AMFreePoly1*
4,1,23,0.000000,0.745722,0.065263,0.745722,0.191342,0.711940,0.304381,0.646677,0.396677,0.554381,0.461940,0.441342,0.495722,0.315263,0.495722,0.250000,0.500000,0.250000,0.500000,-0.250000,0.495722,-0.250000,0.495722,-0.315263,0.461940,-0.441342,0.396677,-0.554381,0.304381,-0.646677,0.191342,-0.711940,0.065263,-0.745722,0.000000,-0.745722,0.000000,-0.750000,-0.500000,-0.750000,
-0.500000,0.750000,0.000000,0.750000,0.000000,0.745722,0.000000,0.745722,$1*%
G04 Aperture macros list end*
%TA.AperFunction,EtchedComponent*%
%ADD10C,0.000000*%
%TD*%
%TA.AperFunction,SMDPad,CuDef*%
%ADD11C,2.000000*%
%TD*%
%TA.AperFunction,ComponentPad*%
%ADD12C,1.600000*%
%TD*%
%TA.AperFunction,ComponentPad*%
%ADD13O,1.600000X1.600000*%
%TD*%
%TA.AperFunction,SMDPad,CuDef*%
%ADD14RoundRect,0.175000X0.175000X0.425000X-0.175000X0.425000X-0.175000X-0.425000X0.175000X-0.425000X0*%
%TD*%
%TA.AperFunction,SMDPad,CuDef*%
%ADD15RoundRect,0.190000X-0.190000X-0.410000X0.190000X-0.410000X0.190000X0.410000X-0.190000X0.410000X0*%
%TD*%
%TA.AperFunction,SMDPad,CuDef*%
%ADD16RoundRect,0.200000X-0.200000X-0.400000X0.200000X-0.400000X0.200000X0.400000X-0.200000X0.400000X0*%
%TD*%
%TA.AperFunction,SMDPad,CuDef*%
%ADD17RoundRect,0.175000X-0.175000X-0.425000X0.175000X-0.425000X0.175000X0.425000X-0.175000X0.425000X0*%
%TD*%
%TA.AperFunction,SMDPad,CuDef*%
%ADD18RoundRect,0.190000X0.190000X0.410000X-0.190000X0.410000X-0.190000X-0.410000X0.190000X-0.410000X0*%
%TD*%
%TA.AperFunction,SMDPad,CuDef*%
%ADD19RoundRect,0.200000X0.200000X0.400000X-0.200000X0.400000X-0.200000X-0.400000X0.200000X-0.400000X0*%
%TD*%
%TA.AperFunction,HeatsinkPad*%
%ADD20O,1.100000X1.700000*%
%TD*%
%TA.AperFunction,ComponentPad*%
%ADD21R,1.600000X1.600000*%
%TD*%
%TA.AperFunction,SMDPad,CuDef*%
%ADD22FreePoly0,90.000000*%
%TD*%
%TA.AperFunction,SMDPad,CuDef*%
%ADD23FreePoly1,90.000000*%
%TD*%
%TA.AperFunction,ComponentPad*%
%ADD24R,1.800000X1.800000*%
%TD*%
%TA.AperFunction,ComponentPad*%
%ADD25C,1.800000*%
%TD*%
%TA.AperFunction,ComponentPad*%
%ADD26C,2.600000*%
%TD*%
%TA.AperFunction,SMDPad,CuDef*%
%ADD27RoundRect,0.162500X-0.617500X-0.162500X0.617500X-0.162500X0.617500X0.162500X-0.617500X0.162500X0*%
%TD*%
%TA.AperFunction,ComponentPad*%
%ADD28R,1.700000X1.700000*%
%TD*%
%TA.AperFunction,ComponentPad*%
%ADD29C,1.700000*%
%TD*%
%TA.AperFunction,ViaPad*%
%ADD30C,0.600000*%
%TD*%
%TA.AperFunction,Conductor*%
%ADD31C,0.200000*%
%TD*%
G04 APERTURE END LIST*
D10*
%TA.AperFunction,EtchedComponent*%
%TO.C,JP3*%
G36*
X189300000Y-118400000D02*
G01*
X188700000Y-118400000D01*
X188700000Y-117900000D01*
X189300000Y-117900000D01*
X189300000Y-118400000D01*
G37*
%TD.AperFunction*%
%TA.AperFunction,EtchedComponent*%
%TO.C,JP2*%
G36*
X189300000Y-111400000D02*
G01*
X188700000Y-111400000D01*
X188700000Y-110900000D01*
X189300000Y-110900000D01*
X189300000Y-111400000D01*
G37*
%TD.AperFunction*%
%TA.AperFunction,EtchedComponent*%
%TO.C,JP1*%
G36*
X189300000Y-105250000D02*
G01*
X188700000Y-105250000D01*
X188700000Y-104750000D01*
X189300000Y-104750000D01*
X189300000Y-105250000D01*
G37*
%TD.AperFunction*%
%TD*%
D11*
%TO.P,TP2,1,1*%
%TO.N,/FB*%
X188500000Y-122500000D03*
%TD*%
%TO.P,TP1,1,1*%
%TO.N,/Vout*%
X188500000Y-100500000D03*
%TD*%
D12*
%TO.P,R3,1*%
%TO.N,/GND*%
X153500000Y-123080000D03*
D13*
%TO.P,R3,2*%
%TO.N,Net-(J2-CC1)*%
X153500000Y-112920000D03*
%TD*%
D12*
%TO.P,R2,1*%
%TO.N,/GND*%
X147500000Y-123080000D03*
D13*
%TO.P,R2,2*%
%TO.N,Net-(J2-CC2)*%
X147500000Y-112920000D03*
%TD*%
D14*
%TO.P,J2,A5,CC1*%
%TO.N,Net-(J2-CC1)*%
X151180000Y-104880000D03*
D15*
%TO.P,J2,A9,VBUS*%
%TO.N,Net-(J1-Pin_1)*%
X149160000Y-104880000D03*
D16*
%TO.P,J2,A12,GND*%
%TO.N,/GND*%
X147930000Y-104880000D03*
D17*
%TO.P,J2,B5,CC2*%
%TO.N,Net-(J2-CC2)*%
X150180000Y-104880000D03*
D18*
%TO.P,J2,B9,VBUS*%
%TO.N,Net-(J1-Pin_1)*%
X152200000Y-104880000D03*
D19*
%TO.P,J2,B12,GND*%
%TO.N,/GND*%
X153430000Y-104880000D03*
D20*
%TO.P,J2,S1,SHIELD*%
X155000000Y-104800000D03*
X155000000Y-101000000D03*
X146360000Y-104800000D03*
X146360000Y-101000000D03*
%TD*%
D21*
%TO.P,C1,1*%
%TO.N,/Vout*%
X174500000Y-101044888D03*
D12*
%TO.P,C1,2*%
%TO.N,/FB*%
X174500000Y-103044888D03*
%TD*%
D22*
%TO.P,JP3,1,A*%
%TO.N,/FB*%
X189000000Y-118800000D03*
D23*
%TO.P,JP3,2,B*%
%TO.N,Net-(D3-K)*%
X189000000Y-117500000D03*
%TD*%
D22*
%TO.P,JP2,1,A*%
%TO.N,Net-(D3-K)*%
X189000000Y-111800000D03*
D23*
%TO.P,JP2,2,B*%
%TO.N,Net-(D2-K)*%
X189000000Y-110500000D03*
%TD*%
D22*
%TO.P,JP1,1,A*%
%TO.N,Net-(D2-K)*%
X189000000Y-105650000D03*
D23*
%TO.P,JP1,2,B*%
%TO.N,Net-(D1-K)*%
X189000000Y-104350000D03*
%TD*%
D24*
%TO.P,D4,1,K*%
%TO.N,/FB*%
X182500000Y-122770000D03*
D25*
%TO.P,D4,2,A*%
%TO.N,Net-(D3-K)*%
X182500000Y-120230000D03*
%TD*%
D24*
%TO.P,D3,1,K*%
%TO.N,Net-(D3-K)*%
X182500000Y-116000000D03*
D25*
%TO.P,D3,2,A*%
%TO.N,Net-(D2-K)*%
X182500000Y-113460000D03*
%TD*%
D24*
%TO.P,D2,1,K*%
%TO.N,Net-(D2-K)*%
X182500000Y-109500000D03*
D25*
%TO.P,D2,2,A*%
%TO.N,Net-(D1-K)*%
X182500000Y-106960000D03*
%TD*%
D24*
%TO.P,D1,1,K*%
%TO.N,Net-(D1-K)*%
X182500000Y-103270000D03*
D25*
%TO.P,D1,2,A*%
%TO.N,/Vout*%
X182500000Y-100730000D03*
%TD*%
D26*
%TO.P,L1,1*%
%TO.N,Net-(J1-Pin_1)*%
X163500000Y-117000000D03*
%TO.P,L1,2*%
%TO.N,Net-(U1-SW)*%
X163500000Y-112000000D03*
%TD*%
D27*
%TO.P,U1,1,SW*%
%TO.N,Net-(U1-SW)*%
X173000000Y-107500000D03*
%TO.P,U1,2,GND*%
%TO.N,/GND*%
X173000000Y-108450000D03*
%TO.P,U1,3,FB*%
%TO.N,/FB*%
X173000000Y-109400000D03*
%TO.P,U1,4,CTRL*%
%TO.N,Net-(J1-Pin_1)*%
X175700000Y-109400000D03*
%TO.P,U1,5,V_{OUT}*%
%TO.N,/Vout*%
X175700000Y-108450000D03*
%TO.P,U1,6,V_{IN}*%
%TO.N,Net-(J1-Pin_1)*%
X175700000Y-107500000D03*
%TD*%
D12*
%TO.P,R1,1*%
%TO.N,/GND*%
X174500000Y-113000000D03*
D13*
%TO.P,R1,2*%
%TO.N,/FB*%
X174500000Y-123160000D03*
%TD*%
D28*
%TO.P,J1,1,Pin_1*%
%TO.N,Net-(J1-Pin_1)*%
X164500000Y-101000000D03*
D29*
%TO.P,J1,2,Pin_2*%
%TO.N,/GND*%
X161960000Y-101000000D03*
%TD*%
D30*
%TO.N,/FB*%
X187000000Y-118500000D03*
X187000000Y-123000000D03*
%TO.N,/GND*%
X170000000Y-108500000D03*
X170000000Y-113000000D03*
%TO.N,/FB*%
X173000000Y-111000000D03*
%TD*%
D31*
%TO.N,Net-(J2-CC1)*%
X151180000Y-110600000D02*
X153500000Y-112920000D01*
X151180000Y-104880000D02*
X151180000Y-110600000D01*
%TO.N,Net-(J2-CC2)*%
X150180000Y-110240000D02*
X147500000Y-112920000D01*
X150180000Y-104880000D02*
X150180000Y-110240000D01*
%TO.N,Net-(J1-Pin_1)*%
X166500000Y-105500000D02*
X173700000Y-105500000D01*
X164500000Y-103500000D02*
X166500000Y-105500000D01*
X164500000Y-101000000D02*
X164500000Y-103500000D01*
X173700000Y-105500000D02*
X175700000Y-107500000D01*
%TO.N,/FB*%
X187300000Y-118800000D02*
X187000000Y-118500000D01*
X189000000Y-118800000D02*
X187300000Y-118800000D01*
X189000000Y-123000000D02*
X187000000Y-123000000D01*
%TO.N,/GND*%
X170050000Y-108450000D02*
X170000000Y-108500000D01*
X173000000Y-108450000D02*
X170050000Y-108450000D01*
X174500000Y-113000000D02*
X170000000Y-113000000D01*
%TO.N,/FB*%
X173000000Y-109400000D02*
X173000000Y-111000000D01*
%TO.N,Net-(D3-K)*%
X184000000Y-118730000D02*
X184000000Y-117500000D01*
X182500000Y-120230000D02*
X184000000Y-118730000D01*
X184000000Y-117500000D02*
X182500000Y-116000000D01*
X189000000Y-117500000D02*
X184000000Y-117500000D01*
X189000000Y-111800000D02*
X189000000Y-117500000D01*
%TO.N,Net-(D2-K)*%
X183500000Y-112460000D02*
X183500000Y-110500000D01*
X182500000Y-113460000D02*
X183500000Y-112460000D01*
X183500000Y-110500000D02*
X182500000Y-109500000D01*
X189000000Y-110500000D02*
X183500000Y-110500000D01*
%TO.N,Net-(D1-K)*%
X183580000Y-105880000D02*
X183580000Y-104350000D01*
X182500000Y-106960000D02*
X183580000Y-105880000D01*
%TO.N,Net-(D2-K)*%
X189000000Y-105650000D02*
X189000000Y-110500000D01*
%TO.N,Net-(D1-K)*%
X183580000Y-104350000D02*
X182500000Y-103270000D01*
X189000000Y-104350000D02*
X183580000Y-104350000D01*
%TO.N,Net-(U1-SW)*%
X168000000Y-107500000D02*
X173000000Y-107500000D01*
X163500000Y-112000000D02*
X168000000Y-107500000D01*
%TO.N,Net-(J1-Pin_1)*%
X158000000Y-111500000D02*
X163500000Y-117000000D01*
X158000000Y-107500000D02*
X158000000Y-111500000D01*
X174500000Y-109000000D02*
X174900000Y-109400000D01*
X174500000Y-107920001D02*
X174500000Y-109000000D01*
X174920001Y-107500000D02*
X174500000Y-107920001D01*
X174900000Y-109400000D02*
X175700000Y-109400000D01*
X175700000Y-107500000D02*
X174920001Y-107500000D01*
X149461000Y-103979000D02*
X151899000Y-103979000D01*
X152200000Y-104280000D02*
X152200000Y-104880000D01*
X149160000Y-104280000D02*
X149461000Y-103979000D01*
X149160000Y-104880000D02*
X149160000Y-104280000D01*
X151899000Y-103979000D02*
X152200000Y-104280000D01*
X152200000Y-105700000D02*
X152200000Y-104880000D01*
X158000000Y-107500000D02*
X154000000Y-107500000D01*
X154000000Y-107500000D02*
X152200000Y-105700000D01*
X164500000Y-101000000D02*
X158000000Y-107500000D01*
%TD*%
%TA.AperFunction,Conductor*%
%TO.N,/Vout*%
G36*
X187697339Y-99020185D02*
G01*
X187743094Y-99072989D01*
X187753038Y-99142147D01*
X187724013Y-99205703D01*
X187703185Y-99224818D01*
X187630894Y-99277339D01*
X187630894Y-99277340D01*
X188500000Y-100146446D01*
X188500001Y-100146446D01*
X189369105Y-99277340D01*
X189369104Y-99277338D01*
X189296816Y-99224818D01*
X189254150Y-99169488D01*
X189248171Y-99099875D01*
X189280777Y-99038080D01*
X189341615Y-99003723D01*
X189369701Y-99000500D01*
X189875500Y-99000500D01*
X189942539Y-99020185D01*
X189988294Y-99072989D01*
X189999500Y-99124500D01*
X189999500Y-99630299D01*
X189979815Y-99697338D01*
X189927011Y-99743093D01*
X189857853Y-99753037D01*
X189794297Y-99724012D01*
X189775182Y-99703185D01*
X189722658Y-99630894D01*
X189722658Y-99630893D01*
X188853554Y-100499999D01*
X188853554Y-100500000D01*
X189722658Y-101369105D01*
X189722658Y-101369104D01*
X189775182Y-101296813D01*
X189830512Y-101254148D01*
X189900125Y-101248169D01*
X189961920Y-101280775D01*
X189996278Y-101341614D01*
X189999500Y-101369699D01*
X189999500Y-103406919D01*
X189979815Y-103473958D01*
X189927011Y-103519713D01*
X189857853Y-103529657D01*
X189813995Y-103512903D01*
X189813273Y-103514155D01*
X189695751Y-103446303D01*
X189695750Y-103446302D01*
X189573829Y-103395800D01*
X189446658Y-103361724D01*
X189315833Y-103344500D01*
X189315826Y-103344500D01*
X188684174Y-103344500D01*
X188684166Y-103344500D01*
X188553341Y-103361724D01*
X188426170Y-103395800D01*
X188304249Y-103446302D01*
X188304248Y-103446303D01*
X188190250Y-103512120D01*
X188190232Y-103512132D01*
X188085555Y-103592455D01*
X188085553Y-103592457D01*
X187992456Y-103685553D01*
X187980615Y-103700986D01*
X187924188Y-103742189D01*
X187882239Y-103749500D01*
X184024500Y-103749500D01*
X183957461Y-103729815D01*
X183911706Y-103677011D01*
X183900500Y-103625500D01*
X183900499Y-102322129D01*
X183900498Y-102322123D01*
X183900497Y-102322116D01*
X183894091Y-102262517D01*
X183890003Y-102251557D01*
X183843797Y-102127671D01*
X183843793Y-102127664D01*
X183757547Y-102012455D01*
X183757544Y-102012452D01*
X183642335Y-101926206D01*
X183642328Y-101926202D01*
X183507482Y-101875908D01*
X183507483Y-101875908D01*
X183447883Y-101869501D01*
X183447881Y-101869500D01*
X183447873Y-101869500D01*
X183447865Y-101869500D01*
X183337308Y-101869500D01*
X183307867Y-101860855D01*
X183277881Y-101854332D01*
X183272865Y-101850577D01*
X183270269Y-101849815D01*
X183249627Y-101833181D01*
X183179526Y-101763080D01*
X183139104Y-101722658D01*
X187630893Y-101722658D01*
X187713828Y-101782914D01*
X187924197Y-101890102D01*
X188148752Y-101963065D01*
X188148751Y-101963065D01*
X188381948Y-102000000D01*
X188618052Y-102000000D01*
X188851247Y-101963065D01*
X189075802Y-101890102D01*
X189286163Y-101782918D01*
X189286169Y-101782914D01*
X189369104Y-101722658D01*
X189369105Y-101722658D01*
X188500000Y-100853554D01*
X187630893Y-101722658D01*
X183139104Y-101722658D01*
X182588585Y-101172137D01*
X182673694Y-101149333D01*
X182776306Y-101090090D01*
X182860090Y-101006306D01*
X182919333Y-100903694D01*
X182942138Y-100818585D01*
X183651066Y-101527514D01*
X183651066Y-101527513D01*
X183697386Y-101463760D01*
X183797432Y-101267410D01*
X183865526Y-101057835D01*
X183900000Y-100840181D01*
X183900000Y-100619818D01*
X183865526Y-100402164D01*
X183858957Y-100381947D01*
X187000000Y-100381947D01*
X187000000Y-100618052D01*
X187036934Y-100851247D01*
X187109897Y-101075802D01*
X187217087Y-101286174D01*
X187277338Y-101369104D01*
X187277340Y-101369105D01*
X188146446Y-100500000D01*
X187277340Y-99630894D01*
X187217084Y-99713830D01*
X187109897Y-99924197D01*
X187036934Y-100148752D01*
X187000000Y-100381947D01*
X183858957Y-100381947D01*
X183797432Y-100192589D01*
X183697388Y-99996243D01*
X183651066Y-99932485D01*
X183651065Y-99932485D01*
X182942137Y-100641413D01*
X182919333Y-100556306D01*
X182860090Y-100453694D01*
X182776306Y-100369910D01*
X182673694Y-100310667D01*
X182588583Y-100287861D01*
X183297513Y-99578932D01*
X183233756Y-99532611D01*
X183037410Y-99432567D01*
X182827835Y-99364473D01*
X182610181Y-99330000D01*
X182389819Y-99330000D01*
X182172164Y-99364473D01*
X181962589Y-99432567D01*
X181766233Y-99532616D01*
X181702485Y-99578931D01*
X181702485Y-99578932D01*
X182411414Y-100287861D01*
X182326306Y-100310667D01*
X182223694Y-100369910D01*
X182139910Y-100453694D01*
X182080667Y-100556306D01*
X182057861Y-100641414D01*
X181348932Y-99932485D01*
X181348931Y-99932485D01*
X181302616Y-99996233D01*
X181202567Y-100192589D01*
X181134473Y-100402164D01*
X181100000Y-100619818D01*
X181100000Y-100840181D01*
X181134473Y-101057835D01*
X181202567Y-101267410D01*
X181302611Y-101463756D01*
X181348932Y-101527513D01*
X182057861Y-100818584D01*
X182080667Y-100903694D01*
X182139910Y-101006306D01*
X182223694Y-101090090D01*
X182326306Y-101149333D01*
X182411414Y-101172137D01*
X181750370Y-101833181D01*
X181689047Y-101866666D01*
X181662690Y-101869500D01*
X181552130Y-101869500D01*
X181552123Y-101869501D01*
X181492516Y-101875908D01*
X181357671Y-101926202D01*
X181357664Y-101926206D01*
X181242455Y-102012452D01*
X181242452Y-102012455D01*
X181156206Y-102127664D01*
X181156202Y-102127671D01*
X181105908Y-102262517D01*
X181100025Y-102317246D01*
X181099501Y-102322123D01*
X181099500Y-102322135D01*
X181099500Y-104217870D01*
X181099501Y-104217876D01*
X181105908Y-104277483D01*
X181156202Y-104412328D01*
X181156206Y-104412335D01*
X181242452Y-104527544D01*
X181242455Y-104527547D01*
X181357664Y-104613793D01*
X181357671Y-104613797D01*
X181492517Y-104664091D01*
X181492516Y-104664091D01*
X181499444Y-104664835D01*
X181552127Y-104670500D01*
X182855500Y-104670499D01*
X182922539Y-104690184D01*
X182968294Y-104742987D01*
X182979500Y-104794499D01*
X182979500Y-105473075D01*
X182959815Y-105540114D01*
X182907011Y-105585869D01*
X182837853Y-105595813D01*
X182829987Y-105594307D01*
X182665456Y-105568248D01*
X182610222Y-105559500D01*
X182389778Y-105559500D01*
X182317201Y-105570995D01*
X182172047Y-105593985D01*
X181962396Y-105662103D01*
X181962393Y-105662104D01*
X181765974Y-105762187D01*
X181587641Y-105891752D01*
X181587636Y-105891756D01*
X181431756Y-106047636D01*
X181431752Y-106047641D01*
X181302187Y-106225974D01*
X181202104Y-106422393D01*
X181202103Y-106422396D01*
X181133985Y-106632047D01*
X181099500Y-106849778D01*
X181099500Y-107070221D01*
X181133985Y-107287952D01*
X181202103Y-107497603D01*
X181202104Y-107497606D01*
X181302187Y-107694025D01*
X181431752Y-107872358D01*
X181431756Y-107872363D01*
X181481928Y-107922535D01*
X181515413Y-107983858D01*
X181510429Y-108053550D01*
X181468557Y-108109483D01*
X181437581Y-108126398D01*
X181357669Y-108156203D01*
X181357664Y-108156206D01*
X181242455Y-108242452D01*
X181242452Y-108242455D01*
X181156206Y-108357664D01*
X181156202Y-108357671D01*
X181105908Y-108492517D01*
X181099501Y-108552116D01*
X181099501Y-108552123D01*
X181099500Y-108552135D01*
X181099500Y-110447870D01*
X181099501Y-110447876D01*
X181105908Y-110507483D01*
X181156202Y-110642328D01*
X181156206Y-110642335D01*
X181242452Y-110757544D01*
X181242455Y-110757547D01*
X181357664Y-110843793D01*
X181357671Y-110843797D01*
X181492517Y-110894091D01*
X181492516Y-110894091D01*
X181499444Y-110894835D01*
X181552127Y-110900500D01*
X182775500Y-110900499D01*
X182842539Y-110920184D01*
X182888294Y-110972987D01*
X182899500Y-111024499D01*
X182899500Y-111960132D01*
X182879815Y-112027171D01*
X182827011Y-112072926D01*
X182757853Y-112082870D01*
X182756102Y-112082605D01*
X182674932Y-112069749D01*
X182610222Y-112059500D01*
X182389778Y-112059500D01*
X182317201Y-112070995D01*
X182172047Y-112093985D01*
X181962396Y-112162103D01*
X181962393Y-112162104D01*
X181765974Y-112262187D01*
X181587641Y-112391752D01*
X181587636Y-112391756D01*
X181431756Y-112547636D01*
X181431752Y-112547641D01*
X181302187Y-112725974D01*
X181202104Y-112922393D01*
X181202103Y-112922396D01*
X181133985Y-113132047D01*
X181106666Y-113304534D01*
X181099500Y-113349778D01*
X181099500Y-113570222D01*
X181115019Y-113668205D01*
X181133985Y-113787952D01*
X181202103Y-113997603D01*
X181202104Y-113997606D01*
X181302187Y-114194025D01*
X181431752Y-114372358D01*
X181431756Y-114372363D01*
X181481928Y-114422535D01*
X181515413Y-114483858D01*
X181510429Y-114553550D01*
X181468557Y-114609483D01*
X181437581Y-114626398D01*
X181357669Y-114656203D01*
X181357664Y-114656206D01*
X181242455Y-114742452D01*
X181242452Y-114742455D01*
X181156206Y-114857664D01*
X181156202Y-114857671D01*
X181105908Y-114992517D01*
X181099501Y-115052116D01*
X181099501Y-115052123D01*
X181099500Y-115052135D01*
X181099500Y-116947870D01*
X181099501Y-116947876D01*
X181105908Y-117007483D01*
X181156202Y-117142328D01*
X181156206Y-117142335D01*
X181242452Y-117257544D01*
X181242455Y-117257547D01*
X181357664Y-117343793D01*
X181357671Y-117343797D01*
X181492517Y-117394091D01*
X181492516Y-117394091D01*
X181499444Y-117394835D01*
X181552127Y-117400500D01*
X182999902Y-117400499D01*
X183066941Y-117420184D01*
X183087583Y-117436818D01*
X183363181Y-117712416D01*
X183396666Y-117773739D01*
X183399500Y-117800097D01*
X183399500Y-118429902D01*
X183379815Y-118496941D01*
X183363181Y-118517583D01*
X183024202Y-118856561D01*
X182962879Y-118890046D01*
X182898203Y-118886811D01*
X182873584Y-118878812D01*
X182827952Y-118863985D01*
X182719086Y-118846742D01*
X182610222Y-118829500D01*
X182389778Y-118829500D01*
X182317201Y-118840995D01*
X182172047Y-118863985D01*
X181962396Y-118932103D01*
X181962393Y-118932104D01*
X181765974Y-119032187D01*
X181587641Y-119161752D01*
X181587636Y-119161756D01*
X181431758Y-119317635D01*
X181431754Y-119317639D01*
X181302187Y-119495974D01*
X181202104Y-119692393D01*
X181202103Y-119692396D01*
X181133985Y-119902047D01*
X181099500Y-120119778D01*
X181099500Y-120340221D01*
X181133985Y-120557952D01*
X181202103Y-120767603D01*
X181202104Y-120767606D01*
X181302187Y-120964025D01*
X181431752Y-121142358D01*
X181431756Y-121142363D01*
X181481928Y-121192535D01*
X181515413Y-121253858D01*
X181510429Y-121323550D01*
X181468557Y-121379483D01*
X181437581Y-121396398D01*
X181357669Y-121426203D01*
X181357664Y-121426206D01*
X181242455Y-121512452D01*
X181242452Y-121512455D01*
X181156206Y-121627664D01*
X181156202Y-121627671D01*
X181105908Y-121762517D01*
X181100640Y-121811522D01*
X181099501Y-121822123D01*
X181099500Y-121822135D01*
X181099500Y-123717870D01*
X181099501Y-123717876D01*
X181105908Y-123777483D01*
X181156202Y-123912328D01*
X181156206Y-123912335D01*
X181242452Y-124027544D01*
X181242455Y-124027547D01*
X181357664Y-124113793D01*
X181357671Y-124113797D01*
X181492517Y-124164091D01*
X181492516Y-124164091D01*
X181499444Y-124164835D01*
X181552127Y-124170500D01*
X183447872Y-124170499D01*
X183507483Y-124164091D01*
X183642331Y-124113796D01*
X183757546Y-124027546D01*
X183843796Y-123912331D01*
X183894091Y-123777483D01*
X183900500Y-123717873D01*
X183900499Y-121822128D01*
X183894091Y-121762517D01*
X183879412Y-121723161D01*
X183843797Y-121627671D01*
X183843793Y-121627664D01*
X183757547Y-121512455D01*
X183757544Y-121512452D01*
X183642335Y-121426206D01*
X183642328Y-121426202D01*
X183562419Y-121396398D01*
X183506485Y-121354527D01*
X183482068Y-121289062D01*
X183496920Y-121220789D01*
X183518069Y-121192537D01*
X183568242Y-121142365D01*
X183697815Y-120964022D01*
X183797895Y-120767606D01*
X183866015Y-120557951D01*
X183900500Y-120340222D01*
X183900500Y-120119778D01*
X183866015Y-119902049D01*
X183843188Y-119831794D01*
X183841193Y-119761953D01*
X183873436Y-119705797D01*
X184358506Y-119220728D01*
X184358511Y-119220724D01*
X184368714Y-119210520D01*
X184368716Y-119210520D01*
X184480520Y-119098716D01*
X184559577Y-118961784D01*
X184600500Y-118809057D01*
X184600500Y-118224500D01*
X184620185Y-118157461D01*
X184672989Y-118111706D01*
X184724500Y-118100500D01*
X186113445Y-118100500D01*
X186180484Y-118120185D01*
X186226239Y-118172989D01*
X186236183Y-118242147D01*
X186231159Y-118260411D01*
X186232031Y-118260676D01*
X186230261Y-118266510D01*
X186199500Y-118421153D01*
X186199500Y-118578846D01*
X186230261Y-118733489D01*
X186230264Y-118733501D01*
X186290602Y-118879172D01*
X186290609Y-118879185D01*
X186378210Y-119010288D01*
X186378213Y-119010292D01*
X186489707Y-119121786D01*
X186489711Y-119121789D01*
X186620814Y-119209390D01*
X186620827Y-119209397D01*
X186766498Y-119269735D01*
X186766503Y-119269737D01*
X186921153Y-119300499D01*
X186921156Y-119300500D01*
X186921158Y-119300500D01*
X186932666Y-119300500D01*
X186994672Y-119317116D01*
X186995570Y-119317635D01*
X187068215Y-119359577D01*
X187220943Y-119400500D01*
X187882239Y-119400500D01*
X187949278Y-119420185D01*
X187980615Y-119449014D01*
X187992456Y-119464446D01*
X187992458Y-119464448D01*
X187992459Y-119464449D01*
X188085551Y-119557541D01*
X188085555Y-119557544D01*
X188190232Y-119637867D01*
X188190236Y-119637869D01*
X188190243Y-119637875D01*
X188190250Y-119637879D01*
X188304248Y-119703696D01*
X188304249Y-119703697D01*
X188304252Y-119703698D01*
X188304257Y-119703701D01*
X188426171Y-119754200D01*
X188553338Y-119788275D01*
X188684174Y-119805500D01*
X188684181Y-119805500D01*
X189315819Y-119805500D01*
X189315826Y-119805500D01*
X189446662Y-119788275D01*
X189573829Y-119754200D01*
X189695743Y-119703701D01*
X189809757Y-119637875D01*
X189809757Y-119637874D01*
X189813273Y-119635845D01*
X189814287Y-119637601D01*
X189873165Y-119619102D01*
X189940563Y-119637520D01*
X189987304Y-119689453D01*
X189999500Y-119743080D01*
X189999500Y-121629448D01*
X189979815Y-121696487D01*
X189927011Y-121742242D01*
X189857853Y-121752186D01*
X189794297Y-121723161D01*
X189775182Y-121702334D01*
X189755295Y-121674962D01*
X189644517Y-121522490D01*
X189477510Y-121355483D01*
X189286433Y-121216657D01*
X189239089Y-121192534D01*
X189075996Y-121109433D01*
X188851368Y-121036446D01*
X188618097Y-120999500D01*
X188618092Y-120999500D01*
X188381908Y-120999500D01*
X188381903Y-120999500D01*
X188148631Y-121036446D01*
X187924003Y-121109433D01*
X187713566Y-121216657D01*
X187662364Y-121253858D01*
X187522490Y-121355483D01*
X187522488Y-121355485D01*
X187522487Y-121355485D01*
X187355485Y-121522487D01*
X187355485Y-121522488D01*
X187355483Y-121522490D01*
X187295862Y-121604550D01*
X187216657Y-121713566D01*
X187109433Y-121924005D01*
X187109432Y-121924007D01*
X187109432Y-121924008D01*
X187056139Y-122088028D01*
X187047759Y-122113818D01*
X187008321Y-122171494D01*
X186943963Y-122198692D01*
X186929828Y-122199500D01*
X186921155Y-122199500D01*
X186766510Y-122230261D01*
X186766498Y-122230264D01*
X186620827Y-122290602D01*
X186620814Y-122290609D01*
X186489711Y-122378210D01*
X186489707Y-122378213D01*
X186378213Y-122489707D01*
X186378210Y-122489711D01*
X186290609Y-122620814D01*
X186290602Y-122620827D01*
X186230264Y-122766498D01*
X186230261Y-122766510D01*
X186199500Y-122921153D01*
X186199500Y-123078846D01*
X186230261Y-123233489D01*
X186230264Y-123233501D01*
X186290602Y-123379172D01*
X186290609Y-123379185D01*
X186378210Y-123510288D01*
X186378213Y-123510292D01*
X186489707Y-123621786D01*
X186489711Y-123621789D01*
X186620814Y-123709390D01*
X186620827Y-123709397D01*
X186766498Y-123769735D01*
X186766503Y-123769737D01*
X186921153Y-123800499D01*
X186921156Y-123800500D01*
X186921158Y-123800500D01*
X187078844Y-123800500D01*
X187078845Y-123800499D01*
X187233497Y-123769737D01*
X187379179Y-123709394D01*
X187428491Y-123676444D01*
X187495166Y-123655566D01*
X187562546Y-123674050D01*
X187570246Y-123679214D01*
X187713567Y-123783343D01*
X187747238Y-123800499D01*
X187924003Y-123890566D01*
X187924005Y-123890566D01*
X187924008Y-123890568D01*
X187991000Y-123912335D01*
X188148631Y-123963553D01*
X188381903Y-124000500D01*
X188381908Y-124000500D01*
X188618097Y-124000500D01*
X188851368Y-123963553D01*
X189075992Y-123890568D01*
X189286433Y-123783343D01*
X189477510Y-123644517D01*
X189644517Y-123477510D01*
X189775183Y-123297664D01*
X189830512Y-123255000D01*
X189900126Y-123249021D01*
X189961920Y-123281627D01*
X189996278Y-123342466D01*
X189999500Y-123370551D01*
X189999500Y-129375500D01*
X189979815Y-129442539D01*
X189927011Y-129488294D01*
X189875500Y-129499500D01*
X145124500Y-129499500D01*
X145057461Y-129479815D01*
X145011706Y-129427011D01*
X145000500Y-129375500D01*
X145000500Y-122977648D01*
X146199500Y-122977648D01*
X146199500Y-123182351D01*
X146231522Y-123384534D01*
X146294781Y-123579223D01*
X146387715Y-123761613D01*
X146508028Y-123927213D01*
X146652786Y-124071971D01*
X146807749Y-124184556D01*
X146818390Y-124192287D01*
X146934607Y-124251503D01*
X147000776Y-124285218D01*
X147000778Y-124285218D01*
X147000781Y-124285220D01*
X147105137Y-124319127D01*
X147195465Y-124348477D01*
X147296557Y-124364488D01*
X147397648Y-124380500D01*
X147397649Y-124380500D01*
X147602351Y-124380500D01*
X147602352Y-124380500D01*
X147804534Y-124348477D01*
X147999219Y-124285220D01*
X148181610Y-124192287D01*
X148289643Y-124113797D01*
X148347213Y-124071971D01*
X148347215Y-124071968D01*
X148347219Y-124071966D01*
X148491966Y-123927219D01*
X148491968Y-123927215D01*
X148491971Y-123927213D01*
X148584032Y-123800500D01*
X148612287Y-123761610D01*
X148705220Y-123579219D01*
X148768477Y-123384534D01*
X148800500Y-123182352D01*
X148800500Y-122977648D01*
X152199500Y-122977648D01*
X152199500Y-123182351D01*
X152231522Y-123384534D01*
X152294781Y-123579223D01*
X152387715Y-123761613D01*
X152508028Y-123927213D01*
X152652786Y-124071971D01*
X152807749Y-124184556D01*
X152818390Y-124192287D01*
X152934607Y-124251503D01*
X153000776Y-124285218D01*
X153000778Y-124285218D01*
X153000781Y-124285220D01*
X153105137Y-124319127D01*
X153195465Y-124348477D01*
X153296557Y-124364488D01*
X153397648Y-124380500D01*
X153397649Y-124380500D01*
X153602351Y-124380500D01*
X153602352Y-124380500D01*
X153804534Y-124348477D01*
X153999219Y-124285220D01*
X154181610Y-124192287D01*
X154289643Y-124113797D01*
X154347213Y-124071971D01*
X154347215Y-124071968D01*
X154347219Y-124071966D01*
X154491966Y-123927219D01*
X154491968Y-123927215D01*
X154491971Y-123927213D01*
X154584032Y-123800500D01*
X154612287Y-123761610D01*
X154705220Y-123579219D01*
X154768477Y-123384534D01*
X154800500Y-123182352D01*
X154800500Y-123057648D01*
X173199500Y-123057648D01*
X173199500Y-123262351D01*
X173231522Y-123464534D01*
X173294781Y-123659223D01*
X173346951Y-123761610D01*
X173366766Y-123800500D01*
X173387715Y-123841613D01*
X173508028Y-124007213D01*
X173652786Y-124151971D01*
X173807749Y-124264556D01*
X173818390Y-124272287D01*
X173934607Y-124331503D01*
X174000776Y-124365218D01*
X174000778Y-124365218D01*
X174000781Y-124365220D01*
X174105137Y-124399127D01*
X174195465Y-124428477D01*
X174296557Y-124444488D01*
X174397648Y-124460500D01*
X174397649Y-124460500D01*
X174602351Y-124460500D01*
X174602352Y-124460500D01*
X174804534Y-124428477D01*
X174999219Y-124365220D01*
X175181610Y-124272287D01*
X175274590Y-124204732D01*
X175347213Y-124151971D01*
X175347215Y-124151968D01*
X175347219Y-124151966D01*
X175491966Y-124007219D01*
X175491968Y-124007215D01*
X175491971Y-124007213D01*
X175560903Y-123912335D01*
X175612287Y-123841610D01*
X175705220Y-123659219D01*
X175768477Y-123464534D01*
X175800500Y-123262352D01*
X175800500Y-123057648D01*
X175768477Y-122855466D01*
X175767145Y-122851368D01*
X175705218Y-122660776D01*
X175664455Y-122580776D01*
X175612287Y-122478390D01*
X175604556Y-122467749D01*
X175491971Y-122312786D01*
X175347213Y-122168028D01*
X175181613Y-122047715D01*
X175181612Y-122047714D01*
X175181610Y-122047713D01*
X175124653Y-122018691D01*
X174999223Y-121954781D01*
X174804534Y-121891522D01*
X174629995Y-121863878D01*
X174602352Y-121859500D01*
X174397648Y-121859500D01*
X174373329Y-121863351D01*
X174195465Y-121891522D01*
X174000776Y-121954781D01*
X173818386Y-122047715D01*
X173652786Y-122168028D01*
X173508028Y-122312786D01*
X173387715Y-122478386D01*
X173294781Y-122660776D01*
X173231522Y-122855465D01*
X173199500Y-123057648D01*
X154800500Y-123057648D01*
X154800500Y-122977648D01*
X154768477Y-122775466D01*
X154705220Y-122580781D01*
X154705218Y-122580778D01*
X154705218Y-122580776D01*
X154653047Y-122478386D01*
X154612287Y-122398390D01*
X154597626Y-122378211D01*
X154491971Y-122232786D01*
X154347213Y-122088028D01*
X154181613Y-121967715D01*
X154181612Y-121967714D01*
X154181610Y-121967713D01*
X154124653Y-121938691D01*
X153999223Y-121874781D01*
X153804534Y-121811522D01*
X153629995Y-121783878D01*
X153602352Y-121779500D01*
X153397648Y-121779500D01*
X153373329Y-121783351D01*
X153195465Y-121811522D01*
X153000776Y-121874781D01*
X152818386Y-121967715D01*
X152652786Y-122088028D01*
X152508028Y-122232786D01*
X152387715Y-122398386D01*
X152294781Y-122580776D01*
X152231522Y-122775465D01*
X152199500Y-122977648D01*
X148800500Y-122977648D01*
X148768477Y-122775466D01*
X148705220Y-122580781D01*
X148705218Y-122580778D01*
X148705218Y-122580776D01*
X148653047Y-122478386D01*
X148612287Y-122398390D01*
X148597626Y-122378211D01*
X148491971Y-122232786D01*
X148347213Y-122088028D01*
X148181613Y-121967715D01*
X148181612Y-121967714D01*
X148181610Y-121967713D01*
X148124653Y-121938691D01*
X147999223Y-121874781D01*
X147804534Y-121811522D01*
X147629995Y-121783878D01*
X147602352Y-121779500D01*
X147397648Y-121779500D01*
X147373329Y-121783351D01*
X147195465Y-121811522D01*
X147000776Y-121874781D01*
X146818386Y-121967715D01*
X146652786Y-122088028D01*
X146508028Y-122232786D01*
X146387715Y-122398386D01*
X146294781Y-122580776D01*
X146231522Y-122775465D01*
X146199500Y-122977648D01*
X145000500Y-122977648D01*
X145000500Y-104396530D01*
X145309500Y-104396530D01*
X145309500Y-105203469D01*
X145349868Y-105406412D01*
X145349870Y-105406420D01*
X145429058Y-105597596D01*
X145544024Y-105769657D01*
X145690342Y-105915975D01*
X145690345Y-105915977D01*
X145862402Y-106030941D01*
X146053580Y-106110130D01*
X146187756Y-106136819D01*
X146256530Y-106150499D01*
X146256534Y-106150500D01*
X146256535Y-106150500D01*
X146463466Y-106150500D01*
X146463467Y-106150499D01*
X146666420Y-106110130D01*
X146857598Y-106030941D01*
X147029655Y-105915977D01*
X147114807Y-105830824D01*
X147176128Y-105797341D01*
X147245820Y-105802325D01*
X147290168Y-105830826D01*
X147294811Y-105835469D01*
X147294813Y-105835470D01*
X147294815Y-105835472D01*
X147440394Y-105923478D01*
X147602804Y-105974086D01*
X147673384Y-105980500D01*
X147673387Y-105980500D01*
X148186613Y-105980500D01*
X148186616Y-105980500D01*
X148257196Y-105974086D01*
X148419606Y-105923478D01*
X148487243Y-105882588D01*
X148554798Y-105864752D01*
X148615543Y-105882587D01*
X148684529Y-105924291D01*
X148844620Y-105974177D01*
X148914199Y-105980500D01*
X149405800Y-105980499D01*
X149405807Y-105980499D01*
X149444278Y-105977003D01*
X149512824Y-105990539D01*
X149563170Y-106038986D01*
X149579500Y-106100494D01*
X149579500Y-109939902D01*
X149559815Y-110006941D01*
X149543181Y-110027583D01*
X147944842Y-111625921D01*
X147883519Y-111659406D01*
X147818848Y-111656173D01*
X147804534Y-111651522D01*
X147629995Y-111623878D01*
X147602352Y-111619500D01*
X147397648Y-111619500D01*
X147383215Y-111621786D01*
X147195465Y-111651522D01*
X147000776Y-111714781D01*
X146818386Y-111807715D01*
X146652786Y-111928028D01*
X146508028Y-112072786D01*
X146387715Y-112238386D01*
X146294781Y-112420776D01*
X146231522Y-112615465D01*
X146199500Y-112817648D01*
X146199500Y-113022351D01*
X146231522Y-113224534D01*
X146294781Y-113419223D01*
X146341184Y-113510292D01*
X146387147Y-113600500D01*
X146387715Y-113601613D01*
X146508028Y-113767213D01*
X146652786Y-113911971D01*
X146762892Y-113991966D01*
X146818390Y-114032287D01*
X146934607Y-114091503D01*
X147000776Y-114125218D01*
X147000778Y-114125218D01*
X147000781Y-114125220D01*
X147105137Y-114159127D01*
X147195465Y-114188477D01*
X147296557Y-114204488D01*
X147397648Y-114220500D01*
X147397649Y-114220500D01*
X147602351Y-114220500D01*
X147602352Y-114220500D01*
X147804534Y-114188477D01*
X147999219Y-114125220D01*
X148181610Y-114032287D01*
X148274590Y-113964732D01*
X148347213Y-113911971D01*
X148347215Y-113911968D01*
X148347219Y-113911966D01*
X148491966Y-113767219D01*
X148491968Y-113767215D01*
X148491971Y-113767213D01*
X148597910Y-113621398D01*
X148612287Y-113601610D01*
X148705220Y-113419219D01*
X148768477Y-113224534D01*
X148800500Y-113022352D01*
X148800500Y-112817648D01*
X148768477Y-112615466D01*
X148763825Y-112601151D01*
X148761832Y-112531312D01*
X148794075Y-112475158D01*
X150439183Y-110830050D01*
X150461120Y-110818072D01*
X150480772Y-110802617D01*
X150491258Y-110801615D01*
X150500504Y-110796567D01*
X150525438Y-110798350D01*
X150550325Y-110795973D01*
X150559687Y-110800799D01*
X150570196Y-110801551D01*
X150590208Y-110816532D01*
X150612429Y-110827987D01*
X150622334Y-110840582D01*
X150626129Y-110843423D01*
X150634247Y-110855729D01*
X150645227Y-110874746D01*
X150672020Y-110921153D01*
X150699479Y-110968714D01*
X150699481Y-110968717D01*
X150818349Y-111087585D01*
X150818355Y-111087590D01*
X152205922Y-112475157D01*
X152239407Y-112536480D01*
X152236173Y-112601155D01*
X152231522Y-112615468D01*
X152199500Y-112817648D01*
X152199500Y-113022351D01*
X152231522Y-113224534D01*
X152294781Y-113419223D01*
X152341184Y-113510292D01*
X152387147Y-113600500D01*
X152387715Y-113601613D01*
X152508028Y-113767213D01*
X152652786Y-113911971D01*
X152762892Y-113991966D01*
X152818390Y-114032287D01*
X152934607Y-114091503D01*
X153000776Y-114125218D01*
X153000778Y-114125218D01*
X153000781Y-114125220D01*
X153105137Y-114159127D01*
X153195465Y-114188477D01*
X153296557Y-114204488D01*
X153397648Y-114220500D01*
X153397649Y-114220500D01*
X153602351Y-114220500D01*
X153602352Y-114220500D01*
X153804534Y-114188477D01*
X153999219Y-114125220D01*
X154181610Y-114032287D01*
X154274590Y-113964732D01*
X154347213Y-113911971D01*
X154347215Y-113911968D01*
X154347219Y-113911966D01*
X154491966Y-113767219D01*
X154491968Y-113767215D01*
X154491971Y-113767213D01*
X154597910Y-113621398D01*
X154612287Y-113601610D01*
X154705220Y-113419219D01*
X154768477Y-113224534D01*
X154800500Y-113022352D01*
X154800500Y-112817648D01*
X154776698Y-112667372D01*
X154768477Y-112615465D01*
X154739127Y-112525137D01*
X154705220Y-112420781D01*
X154705218Y-112420778D01*
X154705218Y-112420776D01*
X154653047Y-112318386D01*
X154612287Y-112238390D01*
X154584032Y-112199500D01*
X154491971Y-112072786D01*
X154347213Y-111928028D01*
X154181613Y-111807715D01*
X154181612Y-111807714D01*
X154181610Y-111807713D01*
X154104089Y-111768214D01*
X153999223Y-111714781D01*
X153804534Y-111651522D01*
X153629995Y-111623878D01*
X153602352Y-111619500D01*
X153397648Y-111619500D01*
X153359599Y-111625526D01*
X153195468Y-111651522D01*
X153186717Y-111654365D01*
X153181154Y-111656173D01*
X153111313Y-111658167D01*
X153055157Y-111625922D01*
X151816819Y-110387584D01*
X151783334Y-110326261D01*
X151780500Y-110299903D01*
X151780500Y-106429097D01*
X151800185Y-106362058D01*
X151852989Y-106316303D01*
X151922147Y-106306359D01*
X151985703Y-106335384D01*
X151992181Y-106341416D01*
X153515139Y-107864374D01*
X153515149Y-107864385D01*
X153519479Y-107868715D01*
X153519480Y-107868716D01*
X153631284Y-107980520D01*
X153631286Y-107980521D01*
X153631290Y-107980524D01*
X153757777Y-108053550D01*
X153768216Y-108059577D01*
X153880019Y-108089534D01*
X153920942Y-108100500D01*
X153920943Y-108100500D01*
X157275500Y-108100500D01*
X157342539Y-108120185D01*
X157388294Y-108172989D01*
X157399500Y-108224500D01*
X157399500Y-111413330D01*
X157399499Y-111413348D01*
X157399499Y-111579054D01*
X157399498Y-111579054D01*
X157440424Y-111731789D01*
X157440425Y-111731790D01*
X157461455Y-111768214D01*
X157461456Y-111768216D01*
X157519475Y-111868709D01*
X157519481Y-111868717D01*
X157638349Y-111987585D01*
X157638355Y-111987590D01*
X161814634Y-116163870D01*
X161848119Y-116225193D01*
X161843135Y-116294885D01*
X161841514Y-116299003D01*
X161791396Y-116419999D01*
X161730306Y-116647989D01*
X161699501Y-116881979D01*
X161699500Y-116881995D01*
X161699500Y-117118004D01*
X161699501Y-117118020D01*
X161730306Y-117352010D01*
X161791394Y-117579993D01*
X161881714Y-117798045D01*
X161881719Y-117798056D01*
X161952677Y-117920957D01*
X161999727Y-118002450D01*
X161999729Y-118002453D01*
X161999730Y-118002454D01*
X162143406Y-118189697D01*
X162143412Y-118189704D01*
X162310295Y-118356587D01*
X162310301Y-118356592D01*
X162497550Y-118500273D01*
X162628918Y-118576118D01*
X162701943Y-118618280D01*
X162701948Y-118618282D01*
X162701951Y-118618284D01*
X162920007Y-118708606D01*
X163147986Y-118769693D01*
X163381989Y-118800500D01*
X163381996Y-118800500D01*
X163618004Y-118800500D01*
X163618011Y-118800500D01*
X163852014Y-118769693D01*
X164079993Y-118708606D01*
X164298049Y-118618284D01*
X164502450Y-118500273D01*
X164689699Y-118356592D01*
X164856592Y-118189699D01*
X165000273Y-118002450D01*
X165118284Y-117798049D01*
X165208606Y-117579993D01*
X165269693Y-117352014D01*
X165300500Y-117118011D01*
X165300500Y-116881989D01*
X165269693Y-116647986D01*
X165208606Y-116420007D01*
X165118284Y-116201951D01*
X165118282Y-116201948D01*
X165118280Y-116201943D01*
X165076118Y-116128918D01*
X165000273Y-115997550D01*
X164856592Y-115810301D01*
X164856587Y-115810295D01*
X164689704Y-115643412D01*
X164689697Y-115643406D01*
X164502454Y-115499730D01*
X164502453Y-115499729D01*
X164502450Y-115499727D01*
X164420957Y-115452677D01*
X164298056Y-115381719D01*
X164298045Y-115381714D01*
X164079993Y-115291394D01*
X163852010Y-115230306D01*
X163618020Y-115199501D01*
X163618017Y-115199500D01*
X163618011Y-115199500D01*
X163381989Y-115199500D01*
X163381983Y-115199500D01*
X163381979Y-115199501D01*
X163147989Y-115230306D01*
X162919999Y-115291396D01*
X162799003Y-115341514D01*
X162729534Y-115348983D01*
X162667055Y-115317707D01*
X162663870Y-115314634D01*
X158636819Y-111287583D01*
X158603334Y-111226260D01*
X158600500Y-111199902D01*
X158600500Y-107800097D01*
X158620185Y-107733058D01*
X158636819Y-107712416D01*
X163687819Y-102661416D01*
X163749142Y-102627931D01*
X163818834Y-102632915D01*
X163874767Y-102674787D01*
X163899184Y-102740251D01*
X163899500Y-102749097D01*
X163899500Y-103413330D01*
X163899499Y-103413348D01*
X163899499Y-103579054D01*
X163899498Y-103579054D01*
X163911944Y-103625500D01*
X163940423Y-103731785D01*
X163946430Y-103742189D01*
X163950651Y-103749500D01*
X164019477Y-103868712D01*
X164019481Y-103868717D01*
X164138349Y-103987585D01*
X164138355Y-103987590D01*
X166015139Y-105864374D01*
X166015149Y-105864385D01*
X166019479Y-105868715D01*
X166019480Y-105868716D01*
X166131284Y-105980520D01*
X166218095Y-106030639D01*
X166218097Y-106030641D01*
X166247533Y-106047636D01*
X166268215Y-106059577D01*
X166420943Y-106100500D01*
X166579057Y-106100500D01*
X173399903Y-106100500D01*
X173466942Y-106120185D01*
X173487584Y-106136819D01*
X173818501Y-106467736D01*
X173851986Y-106529059D01*
X173847002Y-106598751D01*
X173805130Y-106654684D01*
X173739666Y-106679101D01*
X173719599Y-106678908D01*
X173687663Y-106676006D01*
X173671091Y-106674500D01*
X173671089Y-106674500D01*
X172328901Y-106674500D01*
X172262117Y-106680568D01*
X172262106Y-106680571D01*
X172108401Y-106728467D01*
X171970608Y-106811766D01*
X171970607Y-106811767D01*
X171919196Y-106863180D01*
X171857873Y-106896666D01*
X171831514Y-106899500D01*
X168086669Y-106899500D01*
X168086653Y-106899499D01*
X168079057Y-106899499D01*
X167920943Y-106899499D01*
X167823490Y-106925612D01*
X167768210Y-106940424D01*
X167768209Y-106940425D01*
X167718096Y-106969359D01*
X167718095Y-106969360D01*
X167674689Y-106994420D01*
X167631285Y-107019479D01*
X167631282Y-107019481D01*
X167519478Y-107131286D01*
X164336128Y-110314635D01*
X164274805Y-110348120D01*
X164205113Y-110343136D01*
X164201014Y-110341523D01*
X164079993Y-110291394D01*
X163852014Y-110230307D01*
X163852013Y-110230306D01*
X163852010Y-110230306D01*
X163618020Y-110199501D01*
X163618017Y-110199500D01*
X163618011Y-110199500D01*
X163381989Y-110199500D01*
X163381983Y-110199500D01*
X163381979Y-110199501D01*
X163147989Y-110230306D01*
X162920006Y-110291394D01*
X162701954Y-110381714D01*
X162701943Y-110381719D01*
X162497545Y-110499730D01*
X162310302Y-110643406D01*
X162310295Y-110643412D01*
X162143412Y-110810295D01*
X162143406Y-110810302D01*
X161999730Y-110997545D01*
X161881719Y-111201943D01*
X161881714Y-111201954D01*
X161791394Y-111420006D01*
X161730306Y-111647989D01*
X161699501Y-111881979D01*
X161699500Y-111881995D01*
X161699500Y-112118004D01*
X161699501Y-112118020D01*
X161725879Y-112318386D01*
X161730307Y-112352014D01*
X161737327Y-112378213D01*
X161791394Y-112579993D01*
X161881714Y-112798045D01*
X161881719Y-112798056D01*
X161952677Y-112920957D01*
X161999727Y-113002450D01*
X161999729Y-113002453D01*
X161999730Y-113002454D01*
X162143406Y-113189697D01*
X162143412Y-113189704D01*
X162310295Y-113356587D01*
X162310301Y-113356592D01*
X162497550Y-113500273D01*
X162618705Y-113570222D01*
X162701943Y-113618280D01*
X162701948Y-113618282D01*
X162701951Y-113618284D01*
X162920007Y-113708606D01*
X163147986Y-113769693D01*
X163381989Y-113800500D01*
X163381996Y-113800500D01*
X163618004Y-113800500D01*
X163618011Y-113800500D01*
X163852014Y-113769693D01*
X164079993Y-113708606D01*
X164298049Y-113618284D01*
X164502450Y-113500273D01*
X164689699Y-113356592D01*
X164856592Y-113189699D01*
X165000273Y-113002450D01*
X165047210Y-112921153D01*
X169199500Y-112921153D01*
X169199500Y-113078846D01*
X169230261Y-113233489D01*
X169230264Y-113233501D01*
X169290602Y-113379172D01*
X169290609Y-113379185D01*
X169378210Y-113510288D01*
X169378213Y-113510292D01*
X169489707Y-113621786D01*
X169489711Y-113621789D01*
X169620814Y-113709390D01*
X169620827Y-113709397D01*
X169760409Y-113767213D01*
X169766503Y-113769737D01*
X169921148Y-113800498D01*
X169921153Y-113800499D01*
X169921156Y-113800500D01*
X169921158Y-113800500D01*
X170078844Y-113800500D01*
X170078845Y-113800499D01*
X170233497Y-113769737D01*
X170379179Y-113709394D01*
X170440823Y-113668205D01*
X170510875Y-113621398D01*
X170577553Y-113600520D01*
X170579766Y-113600500D01*
X173270398Y-113600500D01*
X173337437Y-113620185D01*
X173380883Y-113668205D01*
X173387715Y-113681614D01*
X173508028Y-113847213D01*
X173652786Y-113991971D01*
X173807749Y-114104556D01*
X173818390Y-114112287D01*
X173934607Y-114171503D01*
X174000776Y-114205218D01*
X174000778Y-114205218D01*
X174000781Y-114205220D01*
X174105137Y-114239127D01*
X174195465Y-114268477D01*
X174296557Y-114284488D01*
X174397648Y-114300500D01*
X174397649Y-114300500D01*
X174602351Y-114300500D01*
X174602352Y-114300500D01*
X174804534Y-114268477D01*
X174999219Y-114205220D01*
X175181610Y-114112287D01*
X175274590Y-114044732D01*
X175347213Y-113991971D01*
X175347215Y-113991968D01*
X175347219Y-113991966D01*
X175491966Y-113847219D01*
X175491968Y-113847215D01*
X175491971Y-113847213D01*
X175548259Y-113769738D01*
X175612287Y-113681610D01*
X175705220Y-113499219D01*
X175768477Y-113304534D01*
X175800500Y-113102352D01*
X175800500Y-112897648D01*
X175781922Y-112780351D01*
X175768477Y-112695465D01*
X175737833Y-112601154D01*
X175705220Y-112500781D01*
X175705218Y-112500778D01*
X175705218Y-112500776D01*
X175664455Y-112420776D01*
X175612287Y-112318390D01*
X175592098Y-112290602D01*
X175491971Y-112152786D01*
X175347213Y-112008028D01*
X175181613Y-111887715D01*
X175181612Y-111887714D01*
X175181610Y-111887713D01*
X175124653Y-111858691D01*
X174999223Y-111794781D01*
X174804534Y-111731522D01*
X174629995Y-111703878D01*
X174602352Y-111699500D01*
X174397648Y-111699500D01*
X174373329Y-111703351D01*
X174195465Y-111731522D01*
X174000776Y-111794781D01*
X173818386Y-111887715D01*
X173652786Y-112008028D01*
X173508028Y-112152786D01*
X173387715Y-112318385D01*
X173380883Y-112331795D01*
X173332909Y-112382591D01*
X173270398Y-112399500D01*
X170579766Y-112399500D01*
X170512727Y-112379815D01*
X170510875Y-112378602D01*
X170379185Y-112290609D01*
X170379172Y-112290602D01*
X170233501Y-112230264D01*
X170233489Y-112230261D01*
X170078845Y-112199500D01*
X170078842Y-112199500D01*
X169921158Y-112199500D01*
X169921155Y-112199500D01*
X169766510Y-112230261D01*
X169766498Y-112230264D01*
X169620827Y-112290602D01*
X169620814Y-112290609D01*
X169489711Y-112378210D01*
X169489707Y-112378213D01*
X169378213Y-112489707D01*
X169378210Y-112489711D01*
X169290609Y-112620814D01*
X169290602Y-112620827D01*
X169230264Y-112766498D01*
X169230261Y-112766510D01*
X169199500Y-112921153D01*
X165047210Y-112921153D01*
X165118284Y-112798049D01*
X165208606Y-112579993D01*
X165269693Y-112352014D01*
X165300500Y-112118011D01*
X165300500Y-111881989D01*
X165269693Y-111647986D01*
X165208606Y-111420007D01*
X165158897Y-111300000D01*
X165158484Y-111299003D01*
X165151015Y-111229534D01*
X165182290Y-111167054D01*
X165185335Y-111163898D01*
X168212416Y-108136819D01*
X168273739Y-108103334D01*
X168300097Y-108100500D01*
X169113445Y-108100500D01*
X169180484Y-108120185D01*
X169226239Y-108172989D01*
X169236183Y-108242147D01*
X169231159Y-108260411D01*
X169232031Y-108260676D01*
X169230261Y-108266510D01*
X169199500Y-108421153D01*
X169199500Y-108578846D01*
X169230261Y-108733489D01*
X169230264Y-108733501D01*
X169290602Y-108879172D01*
X169290609Y-108879185D01*
X169378210Y-109010288D01*
X169378213Y-109010292D01*
X169489707Y-109121786D01*
X169489711Y-109121789D01*
X169620814Y-109209390D01*
X169620827Y-109209397D01*
X169766498Y-109269735D01*
X169766503Y-109269737D01*
X169921153Y-109300499D01*
X169921156Y-109300500D01*
X169921158Y-109300500D01*
X170078844Y-109300500D01*
X170078845Y-109300499D01*
X170233497Y-109269737D01*
X170379179Y-109209394D01*
X170510289Y-109121789D01*
X170545258Y-109086820D01*
X170606580Y-109053334D01*
X170632940Y-109050500D01*
X171595845Y-109050500D01*
X171662884Y-109070185D01*
X171708639Y-109122989D01*
X171718527Y-109181062D01*
X171719341Y-109181099D01*
X171719500Y-109181099D01*
X171719500Y-109181106D01*
X171719627Y-109181112D01*
X171719500Y-109183907D01*
X171719500Y-109616098D01*
X171725568Y-109682882D01*
X171725571Y-109682893D01*
X171773467Y-109836598D01*
X171773468Y-109836600D01*
X171773469Y-109836602D01*
X171856764Y-109974388D01*
X171856766Y-109974391D01*
X171970608Y-110088233D01*
X171970610Y-110088234D01*
X171970612Y-110088236D01*
X172108398Y-110171531D01*
X172262113Y-110219430D01*
X172286723Y-110221666D01*
X172289833Y-110222895D01*
X172293147Y-110222419D01*
X172322106Y-110235644D01*
X172351705Y-110247337D01*
X172353658Y-110250053D01*
X172356703Y-110251444D01*
X172373915Y-110278227D01*
X172392493Y-110304065D01*
X172393205Y-110308243D01*
X172394477Y-110310222D01*
X172399500Y-110345157D01*
X172399500Y-110420234D01*
X172379815Y-110487273D01*
X172378602Y-110489125D01*
X172290609Y-110620814D01*
X172290602Y-110620827D01*
X172230264Y-110766498D01*
X172230261Y-110766510D01*
X172199500Y-110921153D01*
X172199500Y-111078846D01*
X172230261Y-111233489D01*
X172230264Y-111233501D01*
X172290602Y-111379172D01*
X172290609Y-111379185D01*
X172378210Y-111510288D01*
X172378213Y-111510292D01*
X172489707Y-111621786D01*
X172489711Y-111621789D01*
X172620814Y-111709390D01*
X172620827Y-111709397D01*
X172762831Y-111768216D01*
X172766503Y-111769737D01*
X172892402Y-111794780D01*
X172921153Y-111800499D01*
X172921156Y-111800500D01*
X172921158Y-111800500D01*
X173078844Y-111800500D01*
X173078845Y-111800499D01*
X173233497Y-111769737D01*
X173379179Y-111709394D01*
X173510289Y-111621789D01*
X173621789Y-111510289D01*
X173709394Y-111379179D01*
X173769737Y-111233497D01*
X173800500Y-111078842D01*
X173800500Y-110921158D01*
X173800500Y-110921155D01*
X173800499Y-110921153D01*
X173785112Y-110843797D01*
X173769737Y-110766503D01*
X173750691Y-110720521D01*
X173709397Y-110620827D01*
X173709390Y-110620814D01*
X173621398Y-110489125D01*
X173615747Y-110471078D01*
X173605523Y-110455169D01*
X173601071Y-110424207D01*
X173600520Y-110422447D01*
X173600500Y-110420234D01*
X173600500Y-110345157D01*
X173620185Y-110278118D01*
X173672989Y-110232363D01*
X173713278Y-110221665D01*
X173737887Y-110219430D01*
X173737889Y-110219429D01*
X173737891Y-110219429D01*
X173737893Y-110219428D01*
X173801845Y-110199500D01*
X173891602Y-110171531D01*
X174029388Y-110088236D01*
X174143236Y-109974388D01*
X174226531Y-109836602D01*
X174227474Y-109833574D01*
X174228767Y-109831633D01*
X174229469Y-109830072D01*
X174229681Y-109827121D01*
X174248653Y-109801779D01*
X174266208Y-109775425D01*
X174269441Y-109774012D01*
X174271555Y-109771189D01*
X174301213Y-109760128D01*
X174330232Y-109747448D01*
X174333715Y-109748007D01*
X174337020Y-109746775D01*
X174367957Y-109753506D01*
X174399218Y-109758526D01*
X174402861Y-109761100D01*
X174405292Y-109761629D01*
X174433542Y-109782778D01*
X174446030Y-109795266D01*
X174471416Y-109832043D01*
X174473465Y-109836594D01*
X174473468Y-109836599D01*
X174473469Y-109836602D01*
X174556764Y-109974388D01*
X174556766Y-109974391D01*
X174670608Y-110088233D01*
X174670610Y-110088234D01*
X174670612Y-110088236D01*
X174808398Y-110171531D01*
X174962113Y-110219430D01*
X175028909Y-110225500D01*
X176371090Y-110225499D01*
X176371097Y-110225499D01*
X176437882Y-110219431D01*
X176437885Y-110219430D01*
X176437887Y-110219430D01*
X176591602Y-110171531D01*
X176729388Y-110088236D01*
X176843236Y-109974388D01*
X176926531Y-109836602D01*
X176974430Y-109682887D01*
X176980500Y-109616091D01*
X176980499Y-109183910D01*
X176980499Y-109183907D01*
X176980499Y-109183901D01*
X176974431Y-109117117D01*
X176974429Y-109117109D01*
X176925799Y-108961049D01*
X176924647Y-108891188D01*
X176925799Y-108887267D01*
X176973933Y-108732799D01*
X176973935Y-108732792D01*
X176976914Y-108700000D01*
X176744496Y-108700000D01*
X176680346Y-108682117D01*
X176591602Y-108628469D01*
X176437887Y-108580570D01*
X176437885Y-108580569D01*
X176437883Y-108580569D01*
X176391117Y-108576319D01*
X176371091Y-108574500D01*
X176371088Y-108574500D01*
X175824000Y-108574500D01*
X175815314Y-108571949D01*
X175806353Y-108573238D01*
X175782312Y-108562259D01*
X175756961Y-108554815D01*
X175751033Y-108547974D01*
X175742797Y-108544213D01*
X175728507Y-108521978D01*
X175711206Y-108502011D01*
X175708918Y-108491496D01*
X175705023Y-108485435D01*
X175700000Y-108450500D01*
X175700000Y-108449499D01*
X175719685Y-108382460D01*
X175772489Y-108336705D01*
X175824000Y-108325499D01*
X176371097Y-108325499D01*
X176437882Y-108319431D01*
X176437885Y-108319430D01*
X176437887Y-108319430D01*
X176591602Y-108271531D01*
X176680346Y-108217882D01*
X176744496Y-108200000D01*
X176976915Y-108200000D01*
X176976914Y-108199999D01*
X176973935Y-108167207D01*
X176973933Y-108167200D01*
X176925799Y-108012732D01*
X176924647Y-107942871D01*
X176925799Y-107938951D01*
X176946548Y-107872363D01*
X176974430Y-107782887D01*
X176980500Y-107716091D01*
X176980499Y-107283910D01*
X176980499Y-107283901D01*
X176974431Y-107217117D01*
X176974428Y-107217106D01*
X176926532Y-107063401D01*
X176926531Y-107063400D01*
X176926531Y-107063398D01*
X176843236Y-106925612D01*
X176843234Y-106925610D01*
X176843233Y-106925608D01*
X176729391Y-106811766D01*
X176591602Y-106728469D01*
X176591596Y-106728467D01*
X176437887Y-106680570D01*
X176437885Y-106680569D01*
X176437883Y-106680569D01*
X176387663Y-106676006D01*
X176371091Y-106674500D01*
X176371088Y-106674500D01*
X175775097Y-106674500D01*
X175708058Y-106654815D01*
X175687416Y-106638181D01*
X174187590Y-105138355D01*
X174187588Y-105138352D01*
X174068717Y-105019481D01*
X174068716Y-105019480D01*
X173981904Y-104969360D01*
X173981904Y-104969359D01*
X173981900Y-104969358D01*
X173931785Y-104940423D01*
X173779057Y-104899499D01*
X173620943Y-104899499D01*
X173613347Y-104899499D01*
X173613331Y-104899500D01*
X166800097Y-104899500D01*
X166733058Y-104879815D01*
X166712416Y-104863181D01*
X165136819Y-103287584D01*
X165103334Y-103226261D01*
X165100500Y-103199903D01*
X165100500Y-102942536D01*
X173199500Y-102942536D01*
X173199500Y-103147239D01*
X173231522Y-103349422D01*
X173294781Y-103544111D01*
X173336252Y-103625500D01*
X173366850Y-103685553D01*
X173387715Y-103726501D01*
X173508028Y-103892101D01*
X173652786Y-104036859D01*
X173807749Y-104149444D01*
X173818390Y-104157175D01*
X173934607Y-104216391D01*
X174000776Y-104250106D01*
X174000778Y-104250106D01*
X174000781Y-104250108D01*
X174085033Y-104277483D01*
X174195465Y-104313365D01*
X174296557Y-104329376D01*
X174397648Y-104345388D01*
X174397649Y-104345388D01*
X174602351Y-104345388D01*
X174602352Y-104345388D01*
X174804534Y-104313365D01*
X174999219Y-104250108D01*
X175181610Y-104157175D01*
X175274590Y-104089620D01*
X175347213Y-104036859D01*
X175347215Y-104036856D01*
X175347219Y-104036854D01*
X175491966Y-103892107D01*
X175491968Y-103892103D01*
X175491971Y-103892101D01*
X175569120Y-103785913D01*
X175612287Y-103726498D01*
X175705220Y-103544107D01*
X175768477Y-103349422D01*
X175800500Y-103147240D01*
X175800500Y-102942536D01*
X175768477Y-102740354D01*
X175742828Y-102661416D01*
X175733568Y-102632915D01*
X175705220Y-102545669D01*
X175705218Y-102545666D01*
X175705218Y-102545664D01*
X175615806Y-102370185D01*
X175612615Y-102363922D01*
X175599720Y-102295256D01*
X175625996Y-102230516D01*
X175648793Y-102208361D01*
X175657190Y-102202075D01*
X175657190Y-102202074D01*
X175743352Y-102086976D01*
X175743354Y-102086974D01*
X175793596Y-101952267D01*
X175793598Y-101952260D01*
X175799999Y-101892732D01*
X175800000Y-101892715D01*
X175800000Y-101294888D01*
X174815686Y-101294888D01*
X174820080Y-101290494D01*
X174872741Y-101199282D01*
X174900000Y-101097549D01*
X174900000Y-100992227D01*
X174872741Y-100890494D01*
X174820080Y-100799282D01*
X174815686Y-100794888D01*
X175800000Y-100794888D01*
X175800000Y-100197060D01*
X175799998Y-100197032D01*
X175793598Y-100137515D01*
X175793596Y-100137508D01*
X175743354Y-100002801D01*
X175743350Y-100002794D01*
X175657190Y-99887700D01*
X175657187Y-99887697D01*
X175542093Y-99801537D01*
X175542086Y-99801533D01*
X175407379Y-99751291D01*
X175407372Y-99751289D01*
X175390543Y-99749480D01*
X175347844Y-99744888D01*
X174750000Y-99744888D01*
X174750000Y-100729202D01*
X174745606Y-100724808D01*
X174654394Y-100672147D01*
X174552661Y-100644888D01*
X174447339Y-100644888D01*
X174345606Y-100672147D01*
X174254394Y-100724808D01*
X174250000Y-100729202D01*
X174250000Y-99744888D01*
X173652155Y-99744888D01*
X173592627Y-99751289D01*
X173592620Y-99751291D01*
X173457913Y-99801533D01*
X173457906Y-99801537D01*
X173342812Y-99887697D01*
X173342809Y-99887700D01*
X173256649Y-100002794D01*
X173256645Y-100002801D01*
X173206403Y-100137508D01*
X173206401Y-100137515D01*
X173200002Y-100197032D01*
X173200000Y-100197060D01*
X173200000Y-100794888D01*
X174184314Y-100794888D01*
X174179920Y-100799282D01*
X174127259Y-100890494D01*
X174100000Y-100992227D01*
X174100000Y-101097549D01*
X174127259Y-101199282D01*
X174179920Y-101290494D01*
X174184314Y-101294888D01*
X173200000Y-101294888D01*
X173200000Y-101892732D01*
X173206401Y-101952260D01*
X173206403Y-101952267D01*
X173256645Y-102086974D01*
X173256647Y-102086976D01*
X173342809Y-102202074D01*
X173342810Y-102202075D01*
X173351209Y-102208363D01*
X173393080Y-102264297D01*
X173398064Y-102333989D01*
X173387383Y-102363925D01*
X173294781Y-102545664D01*
X173231522Y-102740353D01*
X173199500Y-102942536D01*
X165100500Y-102942536D01*
X165100500Y-102474499D01*
X165120185Y-102407460D01*
X165172989Y-102361705D01*
X165224500Y-102350499D01*
X165397871Y-102350499D01*
X165397872Y-102350499D01*
X165457483Y-102344091D01*
X165592331Y-102293796D01*
X165707546Y-102207546D01*
X165793796Y-102092331D01*
X165844091Y-101957483D01*
X165850500Y-101897873D01*
X165850499Y-100102128D01*
X165844091Y-100042517D01*
X165842810Y-100039083D01*
X165793797Y-99907671D01*
X165793793Y-99907664D01*
X165707547Y-99792455D01*
X165707544Y-99792452D01*
X165592335Y-99706206D01*
X165592328Y-99706202D01*
X165457482Y-99655908D01*
X165457483Y-99655908D01*
X165397883Y-99649501D01*
X165397881Y-99649500D01*
X165397873Y-99649500D01*
X165397864Y-99649500D01*
X163602129Y-99649500D01*
X163602123Y-99649501D01*
X163542516Y-99655908D01*
X163407671Y-99706202D01*
X163407664Y-99706206D01*
X163292455Y-99792452D01*
X163292452Y-99792455D01*
X163206206Y-99907664D01*
X163206203Y-99907669D01*
X163157189Y-100039083D01*
X163115317Y-100095016D01*
X163049853Y-100119433D01*
X162981580Y-100104581D01*
X162953326Y-100083430D01*
X162839786Y-99969890D01*
X162667820Y-99844951D01*
X162478414Y-99748444D01*
X162478413Y-99748443D01*
X162478412Y-99748443D01*
X162276243Y-99682754D01*
X162276241Y-99682753D01*
X162276240Y-99682753D01*
X162114957Y-99657208D01*
X162066287Y-99649500D01*
X161853713Y-99649500D01*
X161805042Y-99657208D01*
X161643760Y-99682753D01*
X161441585Y-99748444D01*
X161252179Y-99844951D01*
X161080213Y-99969890D01*
X160929890Y-100120213D01*
X160804951Y-100292179D01*
X160708444Y-100481585D01*
X160642753Y-100683760D01*
X160609500Y-100893713D01*
X160609500Y-101106286D01*
X160639676Y-101296813D01*
X160642754Y-101316243D01*
X160690685Y-101463760D01*
X160708444Y-101518414D01*
X160804951Y-101707820D01*
X160929890Y-101879786D01*
X161080213Y-102030109D01*
X161252179Y-102155048D01*
X161252181Y-102155049D01*
X161252184Y-102155051D01*
X161441588Y-102251557D01*
X161643757Y-102317246D01*
X161853713Y-102350500D01*
X161853714Y-102350500D01*
X162000902Y-102350500D01*
X162067941Y-102370185D01*
X162113696Y-102422989D01*
X162123640Y-102492147D01*
X162094615Y-102555703D01*
X162088583Y-102562181D01*
X157787584Y-106863181D01*
X157726261Y-106896666D01*
X157699903Y-106899500D01*
X154300097Y-106899500D01*
X154233058Y-106879815D01*
X154212416Y-106863181D01*
X153541416Y-106192181D01*
X153507931Y-106130858D01*
X153512915Y-106061166D01*
X153554787Y-106005233D01*
X153620251Y-105980816D01*
X153629097Y-105980500D01*
X153686613Y-105980500D01*
X153686616Y-105980500D01*
X153757196Y-105974086D01*
X153919606Y-105923478D01*
X154065185Y-105835472D01*
X154069828Y-105830828D01*
X154131148Y-105797342D01*
X154200840Y-105802323D01*
X154245193Y-105830826D01*
X154330342Y-105915975D01*
X154330345Y-105915977D01*
X154502402Y-106030941D01*
X154693580Y-106110130D01*
X154827756Y-106136819D01*
X154896530Y-106150499D01*
X154896534Y-106150500D01*
X154896535Y-106150500D01*
X155103466Y-106150500D01*
X155103467Y-106150499D01*
X155306420Y-106110130D01*
X155497598Y-106030941D01*
X155669655Y-105915977D01*
X155815977Y-105769655D01*
X155930941Y-105597598D01*
X156010130Y-105406420D01*
X156050500Y-105203465D01*
X156050500Y-104396535D01*
X156010130Y-104193580D01*
X155930941Y-104002402D01*
X155815977Y-103830345D01*
X155815975Y-103830342D01*
X155669657Y-103684024D01*
X155512561Y-103579057D01*
X155497598Y-103569059D01*
X155306420Y-103489870D01*
X155306412Y-103489868D01*
X155103469Y-103449500D01*
X155103465Y-103449500D01*
X154896535Y-103449500D01*
X154896530Y-103449500D01*
X154693587Y-103489868D01*
X154693579Y-103489870D01*
X154502403Y-103569058D01*
X154330342Y-103684024D01*
X154184025Y-103830341D01*
X154184022Y-103830345D01*
X154170844Y-103850068D01*
X154117231Y-103894873D01*
X154047906Y-103903580D01*
X154003593Y-103887294D01*
X153919606Y-103836522D01*
X153757196Y-103785914D01*
X153757194Y-103785913D01*
X153757192Y-103785913D01*
X153707778Y-103781423D01*
X153686616Y-103779500D01*
X153173384Y-103779500D01*
X153154145Y-103781248D01*
X153102807Y-103785913D01*
X152940394Y-103836522D01*
X152872753Y-103877412D01*
X152865841Y-103879236D01*
X152860453Y-103883934D01*
X152832507Y-103888037D01*
X152805198Y-103895247D01*
X152796714Y-103893292D01*
X152791324Y-103894084D01*
X152775101Y-103888313D01*
X152757430Y-103884242D01*
X152750742Y-103881212D01*
X152675471Y-103835709D01*
X152594885Y-103810597D01*
X152587914Y-103807439D01*
X152575460Y-103796712D01*
X152551407Y-103782172D01*
X152386590Y-103617355D01*
X152386588Y-103617352D01*
X152267717Y-103498481D01*
X152267716Y-103498480D01*
X152177335Y-103446299D01*
X152130785Y-103419423D01*
X151978057Y-103378499D01*
X151819943Y-103378499D01*
X151812347Y-103378499D01*
X151812331Y-103378500D01*
X149381942Y-103378500D01*
X149229213Y-103419423D01*
X149182665Y-103446299D01*
X149182664Y-103446299D01*
X149092287Y-103498477D01*
X149092282Y-103498481D01*
X148980478Y-103610286D01*
X148808592Y-103782171D01*
X148757803Y-103812875D01*
X148684531Y-103835708D01*
X148684529Y-103835708D01*
X148684529Y-103835709D01*
X148620908Y-103874168D01*
X148615543Y-103877412D01*
X148547988Y-103895247D01*
X148487244Y-103877411D01*
X148472854Y-103868712D01*
X148419606Y-103836522D01*
X148257196Y-103785914D01*
X148257194Y-103785913D01*
X148257192Y-103785913D01*
X148207778Y-103781423D01*
X148186616Y-103779500D01*
X147673384Y-103779500D01*
X147654145Y-103781248D01*
X147602807Y-103785913D01*
X147440393Y-103836522D01*
X147356407Y-103887294D01*
X147288852Y-103905130D01*
X147222378Y-103883612D01*
X147189155Y-103850068D01*
X147175977Y-103830345D01*
X147175974Y-103830342D01*
X147175973Y-103830340D01*
X147029657Y-103684024D01*
X146872561Y-103579057D01*
X146857598Y-103569059D01*
X146666420Y-103489870D01*
X146666412Y-103489868D01*
X146463469Y-103449500D01*
X146463465Y-103449500D01*
X146256535Y-103449500D01*
X146256530Y-103449500D01*
X146053587Y-103489868D01*
X146053579Y-103489870D01*
X145862403Y-103569058D01*
X145690342Y-103684024D01*
X145544024Y-103830342D01*
X145429058Y-104002403D01*
X145349870Y-104193579D01*
X145349868Y-104193587D01*
X145309500Y-104396530D01*
X145000500Y-104396530D01*
X145000500Y-100596530D01*
X145309500Y-100596530D01*
X145309500Y-101403469D01*
X145349868Y-101606412D01*
X145349870Y-101606420D01*
X145422976Y-101782914D01*
X145429059Y-101797598D01*
X145477102Y-101869500D01*
X145544024Y-101969657D01*
X145690342Y-102115975D01*
X145690345Y-102115977D01*
X145862402Y-102230941D01*
X146053580Y-102310130D01*
X146224315Y-102344091D01*
X146256530Y-102350499D01*
X146256534Y-102350500D01*
X146256535Y-102350500D01*
X146463466Y-102350500D01*
X146463467Y-102350499D01*
X146666420Y-102310130D01*
X146857598Y-102230941D01*
X147029655Y-102115977D01*
X147175977Y-101969655D01*
X147290941Y-101797598D01*
X147370130Y-101606420D01*
X147410500Y-101403465D01*
X147410500Y-100596535D01*
X147410499Y-100596530D01*
X153949500Y-100596530D01*
X153949500Y-101403469D01*
X153989868Y-101606412D01*
X153989870Y-101606420D01*
X154062976Y-101782914D01*
X154069059Y-101797598D01*
X154117102Y-101869500D01*
X154184024Y-101969657D01*
X154330342Y-102115975D01*
X154330345Y-102115977D01*
X154502402Y-102230941D01*
X154693580Y-102310130D01*
X154864315Y-102344091D01*
X154896530Y-102350499D01*
X154896534Y-102350500D01*
X154896535Y-102350500D01*
X155103466Y-102350500D01*
X155103467Y-102350499D01*
X155306420Y-102310130D01*
X155497598Y-102230941D01*
X155669655Y-102115977D01*
X155815977Y-101969655D01*
X155930941Y-101797598D01*
X156010130Y-101606420D01*
X156050500Y-101403465D01*
X156050500Y-100596535D01*
X156010130Y-100393580D01*
X155930941Y-100202402D01*
X155815977Y-100030345D01*
X155815975Y-100030342D01*
X155669657Y-99884024D01*
X155532608Y-99792452D01*
X155497598Y-99769059D01*
X155450330Y-99749480D01*
X155306420Y-99689870D01*
X155306412Y-99689868D01*
X155103469Y-99649500D01*
X155103465Y-99649500D01*
X154896535Y-99649500D01*
X154896530Y-99649500D01*
X154693587Y-99689868D01*
X154693579Y-99689870D01*
X154502403Y-99769058D01*
X154330342Y-99884024D01*
X154184024Y-100030342D01*
X154069058Y-100202403D01*
X153989870Y-100393579D01*
X153989868Y-100393587D01*
X153949500Y-100596530D01*
X147410499Y-100596530D01*
X147370130Y-100393580D01*
X147290941Y-100202402D01*
X147175977Y-100030345D01*
X147175975Y-100030342D01*
X147029657Y-99884024D01*
X146892608Y-99792452D01*
X146857598Y-99769059D01*
X146810330Y-99749480D01*
X146666420Y-99689870D01*
X146666412Y-99689868D01*
X146463469Y-99649500D01*
X146463465Y-99649500D01*
X146256535Y-99649500D01*
X146256530Y-99649500D01*
X146053587Y-99689868D01*
X146053579Y-99689870D01*
X145862403Y-99769058D01*
X145690342Y-99884024D01*
X145544024Y-100030342D01*
X145429058Y-100202403D01*
X145349870Y-100393579D01*
X145349868Y-100393587D01*
X145309500Y-100596530D01*
X145000500Y-100596530D01*
X145000500Y-99124500D01*
X145020185Y-99057461D01*
X145072989Y-99011706D01*
X145124500Y-99000500D01*
X187630300Y-99000500D01*
X187697339Y-99020185D01*
G37*
%TD.AperFunction*%
%TD*%
M02*
