%TF.GenerationSoftware,KiCad,Pcbnew,9.0.1*%
%TF.CreationDate,2025-04-12T12:51:46-05:00*%
%TF.ProjectId,Through Hole LED,5468726f-7567-4682-9048-6f6c65204c45,rev?*%
%TF.SameCoordinates,Original*%
%TF.FileFunction,Soldermask,Top*%
%TF.FilePolarity,Negative*%
%FSLAX46Y46*%
G04 Gerber Fmt 4.6, Leading zero omitted, Abs format (unit mm)*
G04 Created by KiCad (PCBNEW 9.0.1) date 2025-04-12 12:51:46*
%MOMM*%
%LPD*%
G01*
G04 APERTURE LIST*
G04 Aperture macros list*
%AMRoundRect*
0 Rectangle with rounded corners*
0 $1 Rounding radius*
0 $2 $3 $4 $5 $6 $7 $8 $9 X,Y pos of 4 corners*
0 Add a 4 corners polygon primitive as box body*
4,1,4,$2,$3,$4,$5,$6,$7,$8,$9,$2,$3,0*
0 Add four circle primitives for the rounded corners*
1,1,$1+$1,$2,$3*
1,1,$1+$1,$4,$5*
1,1,$1+$1,$6,$7*
1,1,$1+$1,$8,$9*
0 Add four rect primitives between the rounded corners*
20,1,$1+$1,$2,$3,$4,$5,0*
20,1,$1+$1,$4,$5,$6,$7,0*
20,1,$1+$1,$6,$7,$8,$9,0*
20,1,$1+$1,$8,$9,$2,$3,0*%
%AMFreePoly0*
4,1,23,0.500000,-0.750000,0.000000,-0.750000,0.000000,-0.745722,-0.065263,-0.745722,-0.191342,-0.711940,-0.304381,-0.646677,-0.396677,-0.554381,-0.461940,-0.441342,-0.495722,-0.315263,-0.495722,-0.250000,-0.500000,-0.250000,-0.500000,0.250000,-0.495722,0.250000,-0.495722,0.315263,-0.461940,0.441342,-0.396677,0.554381,-0.304381,0.646677,-0.191342,0.711940,-0.065263,0.745722,0.000000,0.745722,
0.000000,0.750000,0.500000,0.750000,0.500000,-0.750000,0.500000,-0.750000,$1*%
%AMFreePoly1*
4,1,23,0.000000,0.745722,0.065263,0.745722,0.191342,0.711940,0.304381,0.646677,0.396677,0.554381,0.461940,0.441342,0.495722,0.315263,0.495722,0.250000,0.500000,0.250000,0.500000,-0.250000,0.495722,-0.250000,0.495722,-0.315263,0.461940,-0.441342,0.396677,-0.554381,0.304381,-0.646677,0.191342,-0.711940,0.065263,-0.745722,0.000000,-0.745722,0.000000,-0.750000,-0.500000,-0.750000,
-0.500000,0.750000,0.000000,0.750000,0.000000,0.745722,0.000000,0.745722,$1*%
G04 Aperture macros list end*
%ADD10C,2.000000*%
%ADD11C,1.600000*%
%ADD12O,1.600000X1.600000*%
%ADD13RoundRect,0.175000X0.175000X0.425000X-0.175000X0.425000X-0.175000X-0.425000X0.175000X-0.425000X0*%
%ADD14RoundRect,0.190000X-0.190000X-0.410000X0.190000X-0.410000X0.190000X0.410000X-0.190000X0.410000X0*%
%ADD15RoundRect,0.200000X-0.200000X-0.400000X0.200000X-0.400000X0.200000X0.400000X-0.200000X0.400000X0*%
%ADD16RoundRect,0.175000X-0.175000X-0.425000X0.175000X-0.425000X0.175000X0.425000X-0.175000X0.425000X0*%
%ADD17RoundRect,0.190000X0.190000X0.410000X-0.190000X0.410000X-0.190000X-0.410000X0.190000X-0.410000X0*%
%ADD18RoundRect,0.200000X0.200000X0.400000X-0.200000X0.400000X-0.200000X-0.400000X0.200000X-0.400000X0*%
%ADD19O,1.100000X1.700000*%
%ADD20R,1.600000X1.600000*%
%ADD21FreePoly0,90.000000*%
%ADD22FreePoly1,90.000000*%
%ADD23R,1.800000X1.800000*%
%ADD24C,1.800000*%
%ADD25C,2.600000*%
%ADD26RoundRect,0.162500X-0.617500X-0.162500X0.617500X-0.162500X0.617500X0.162500X-0.617500X0.162500X0*%
%ADD27R,1.700000X1.700000*%
%ADD28C,1.700000*%
G04 APERTURE END LIST*
%TO.C,JP3*%
G36*
X188250000Y-118300000D02*
G01*
X189750000Y-118300000D01*
X189750000Y-118000000D01*
X188250000Y-118000000D01*
X188250000Y-118300000D01*
G37*
%TO.C,JP2*%
G36*
X188250000Y-111300000D02*
G01*
X189750000Y-111300000D01*
X189750000Y-111000000D01*
X188250000Y-111000000D01*
X188250000Y-111300000D01*
G37*
%TO.C,JP1*%
G36*
X188250000Y-105150000D02*
G01*
X189750000Y-105150000D01*
X189750000Y-104850000D01*
X188250000Y-104850000D01*
X188250000Y-105150000D01*
G37*
%TD*%
D10*
%TO.C,TP2*%
X188500000Y-122500000D03*
%TD*%
%TO.C,TP1*%
X188500000Y-100500000D03*
%TD*%
D11*
%TO.C,R3*%
X153500000Y-123080000D03*
D12*
X153500000Y-112920000D03*
%TD*%
D11*
%TO.C,R2*%
X147500000Y-123080000D03*
D12*
X147500000Y-112920000D03*
%TD*%
D13*
%TO.C,J2*%
X151180000Y-104880000D03*
D14*
X149160000Y-104880000D03*
D15*
X147930000Y-104880000D03*
D16*
X150180000Y-104880000D03*
D17*
X152200000Y-104880000D03*
D18*
X153430000Y-104880000D03*
D19*
X155000000Y-104800000D03*
X155000000Y-101000000D03*
X146360000Y-104800000D03*
X146360000Y-101000000D03*
%TD*%
D20*
%TO.C,C1*%
X174500000Y-101044888D03*
D11*
X174500000Y-103044888D03*
%TD*%
D21*
%TO.C,JP3*%
X189000000Y-118800000D03*
D22*
X189000000Y-117500000D03*
%TD*%
D21*
%TO.C,JP2*%
X189000000Y-111800000D03*
D22*
X189000000Y-110500000D03*
%TD*%
D21*
%TO.C,JP1*%
X189000000Y-105650000D03*
D22*
X189000000Y-104350000D03*
%TD*%
D23*
%TO.C,D4*%
X182500000Y-122770000D03*
D24*
X182500000Y-120230000D03*
%TD*%
D23*
%TO.C,D3*%
X182500000Y-116000000D03*
D24*
X182500000Y-113460000D03*
%TD*%
D23*
%TO.C,D2*%
X182500000Y-109500000D03*
D24*
X182500000Y-106960000D03*
%TD*%
D23*
%TO.C,D1*%
X182500000Y-103270000D03*
D24*
X182500000Y-100730000D03*
%TD*%
D25*
%TO.C,L1*%
X163500000Y-117000000D03*
X163500000Y-112000000D03*
%TD*%
D26*
%TO.C,U1*%
X173000000Y-107500000D03*
X173000000Y-108450000D03*
X173000000Y-109400000D03*
X175700000Y-109400000D03*
X175700000Y-108450000D03*
X175700000Y-107500000D03*
%TD*%
D11*
%TO.C,R1*%
X174500000Y-113000000D03*
D12*
X174500000Y-123160000D03*
%TD*%
D27*
%TO.C,J1*%
X164500000Y-101000000D03*
D28*
X161960000Y-101000000D03*
%TD*%
M02*
